<?xml version="1.0" encoding="UTF-8"?>
<svg width="32px" height="32px" viewBox="0 0 56 56" version="1.1" xmlns='http://www.w3.org/2000/svg' xmlns:xlink='http://www.w3.org/1999/xlink'>
    <!-- Generator: Sketch 58 (84663) - https://sketch.com -->
    <title>Atom/System-Icon/56X56/icon-confirmation</title>
    <desc>Created with Sketch.</desc>
    <g id="Closures-process---immediate-closure-medium-Copy" stroke="none" stroke-width="1" fill="none" fill-rule="evenodd">
        <g id="Atom/System-Icon/56X56/icon-confirmation-medium" fill="#429448">
            <path d="M28,0 C43.463,0 56,12.5405 56,28 C56,43.463 43.463,56 28,56 C12.537,56 0,43.463 0,28 C0,12.5405 12.537,0 28,0 Z M40.8555104,15.0804023 L21.5486297,31.8330389 L14.3506927,27.2356455 C14.3506927,27.2356455 13.4256275,26.8755545 13.0699976,27.2430388 L11.4271182,29.0309279 C11.0660296,29.4040528 11.068285,29.9909118 11.4199635,30.3543129 L19.2235648,38.4180342 L21.7753569,41.0548861 L24.3271491,38.4180342 L44.0129669,18.0760225 C44.3643413,17.7129355 44.3614421,17.1201218 44.0058122,16.7526375 L42.1362055,15.0877955 C41.7751169,14.7146706 41.2071889,14.7170012 40.8555104,15.0804023 Z" id="Combined-Shape"></path>
        </g>
    </g>
</svg>