<?xml version="1.0" encoding="UTF-8"?>
<svg width="32px" height="32px" viewBox="0 0 56 56" version="1.1" xmlns="http://www.w3.org/2000/svg" xmlns:xlink="http://www.w3.org/1999/xlink">
        <!-- Generator: Sketch 58 (84663) - https://sketch.com -->
<title>Atom/System-Icon/32x32/icon-error</title>
<desc>Created with Sketch.</desc>
<g id="Symbols/Validation/Page/#Medium" stroke="none" stroke-width="1" fill="none" fill-rule="evenodd">
<g id="Molecule/Validation/Page/#Medium" transform="translate(-24.000000, -24.000000)" fill="#E60303">
    <g id="Molecule/Messages/Error/Page/#Medium">
       <g id="Atom/System-Icon/56X56/icon-error-medium" transform="translate(24.000000, 24.000000)">
            <path d="M28.0075637,1.0658141e-14 C29.2115118,1.0658141e-14 30.4154599,0.815550972 31.3394201,2.45015313 L55.2363905,50.0846303 C57.0563121,53.3328333 55.5128786,56 51.7785395,56 L4.23308804,56 C0.502248786,56 -1.07268336,53.3293331 0.775237023,50.0846303 L24.6722074,2.45015313 C25.5499696,0.89728108 26.6804209,0.0836027252 27.8265073,0.00611706982 L28.0075637,1.0658141e-14 Z M31.4986428,42.0061254 L24.4989444,42.0061254 L24.4989444,49.0065629 L31.4986428,49.0065629 L31.4986428,42.0061254 Z M31.4986428,17.5010938 L24.4989444,17.5010938 L24.4989444,35.0021876 L31.4986428,35.0021876 L31.4986428,17.5010938 Z" id="Combined-Shape"></path>
        </g>
    </g>
</g>
</g>
 </svg>